<svg id="Layer_1" data-name="Layer 1" xmlns="http://www.w3.org/2000/svg" viewBox="0 0 227.06 43.85"><defs><style>.cls-1{isolation:isolate;}.cls-2{fill:#16284c;}.cls-3{fill:#ee7500;}.cls-4{fill:#ebba16;}.cls-5{fill:#efce4a;}.cls-6{fill:#fff;}</style></defs><title>logo</title><g id="Designs"><g id="Desktop---All-Artists"><g id="lOGO"><g id="BALTIMORE" class="cls-1"><g class="cls-1"><path class="cls-2" d="M60.9,26V4.67h7.47a9.82,9.82,0,0,1,5.89,1.49,5.09,5.09,0,0,1,2,4.36,4.81,4.81,0,0,1-.81,2.76A4.65,4.65,0,0,1,73.22,15a4.5,4.5,0,0,1,2.59,1.66,4.89,4.89,0,0,1,.94,3,5.63,5.63,0,0,1-2,4.66A8.84,8.84,0,0,1,69.2,26H60.9ZM65.3,13.61h3.25q3.33-.06,3.33-2.65A2.45,2.45,0,0,0,71,8.87a4.42,4.42,0,0,0-2.66-.64H65.3v5.38Zm0,3.11v5.76h3.76a3.63,3.63,0,0,0,2.42-.74,2.54,2.54,0,0,0,.87-2q0-2.93-3-3h-4Z" transform="translate(0 -4.38)"/><path class="cls-2" d="M92.09,21.61H84.39L82.92,26H78.25L86.19,4.67h4.07l8,21.33H93.57ZM85.57,18H90.9l-2.68-8Z" transform="translate(0 -4.38)"/><path class="cls-2" d="M104.63,22.47H114V26H100.24V4.67h4.39v17.8Z" transform="translate(0 -4.38)"/><path class="cls-2" d="M129.53,8.23H123V26H118.6V8.23h-6.45V4.67h17.37V8.23Z" transform="translate(0 -4.38)"/><path class="cls-2" d="M136.71,26h-4.39V4.67h4.39V26Z" transform="translate(0 -4.38)"/><path class="cls-2" d="M146.52,4.67L152,20.14l5.45-15.47h5.77V26h-4.41V20.17l0.44-10.06L153.5,26h-3l-5.74-15.88,0.44,10V26h-4.39V4.67h5.74Z" transform="translate(0 -4.38)"/><path class="cls-2" d="M184.58,15.82a12.88,12.88,0,0,1-1.11,5.52A8.38,8.38,0,0,1,180.28,25a9.41,9.41,0,0,1-9.48,0,8.47,8.47,0,0,1-3.22-3.64,12.51,12.51,0,0,1-1.16-5.44V14.88a12.79,12.79,0,0,1,1.14-5.54,8.45,8.45,0,0,1,3.21-3.68,9.41,9.41,0,0,1,9.48,0,8.45,8.45,0,0,1,3.21,3.68,12.75,12.75,0,0,1,1.14,5.53v1Zm-4.45-1a9,9,0,0,0-1.2-5.1,4.24,4.24,0,0,0-6.84,0,8.88,8.88,0,0,0-1.22,5v1a9.09,9.09,0,0,0,1.2,5.07,4.21,4.21,0,0,0,6.86.07,9,9,0,0,0,1.2-5.06v-1Z" transform="translate(0 -4.38)"/><path class="cls-2" d="M195.67,18.19h-3.5V26h-4.39V4.67h7.92a9,9,0,0,1,5.83,1.68,5.81,5.81,0,0,1,2.05,4.76,6.56,6.56,0,0,1-.95,3.64,6.44,6.44,0,0,1-2.86,2.32l4.61,8.72V26h-4.72Zm-3.5-3.56h3.54a3.63,3.63,0,0,0,2.56-.84,3,3,0,0,0,.91-2.32,3.22,3.22,0,0,0-.86-2.37,3.56,3.56,0,0,0-2.63-.86h-3.53v6.4Z" transform="translate(0 -4.38)"/><path class="cls-2" d="M219.75,16.73h-8.44v5.74h9.9V26h-14.3V4.67h14.27V8.23h-9.87v5.08h8.44v3.41Z" transform="translate(0 -4.38)"/></g></g><g id="MUSIC-MISSION" class="cls-1"><g class="cls-1"><path class="cls-2" d="M63,31.29L69.14,46l6.18-14.75h1.88V48H75.8V40.72l0.11-7.46L69.69,48H68.6l-6.2-14.68,0.11,7.36V48H61.11V31.29H63Z" transform="translate(0 -4.38)"/><path class="cls-2" d="M93,31.29V42.7a5.78,5.78,0,0,1-.75,2.94,4.9,4.9,0,0,1-2.07,1.92,6.75,6.75,0,0,1-3.07.67,6.05,6.05,0,0,1-4.23-1.44,5.28,5.28,0,0,1-1.65-4V31.29h1.4V42.6a4.34,4.34,0,0,0,1.21,3.28,5.15,5.15,0,0,0,6.53,0,4.34,4.34,0,0,0,1.2-3.26V31.29H93Z" transform="translate(0 -4.38)"/><path class="cls-2" d="M106.34,43.89a2.71,2.71,0,0,0-1-2.2,10.3,10.3,0,0,0-3.57-1.54A12.51,12.51,0,0,1,98,38.57a3.86,3.86,0,0,1-.12-6.31,6.48,6.48,0,0,1,4-1.2,6.69,6.69,0,0,1,3,.64,4.88,4.88,0,0,1,2,1.79,4.7,4.7,0,0,1,.72,2.56h-1.42a3.51,3.51,0,0,0-1.17-2.76,4.56,4.56,0,0,0-3.14-1,5,5,0,0,0-3.05.86,2.67,2.67,0,0,0-1.14,2.24,2.53,2.53,0,0,0,1,2.08A9.46,9.46,0,0,0,102,38.85a15.37,15.37,0,0,1,3.41,1.28,4.86,4.86,0,0,1,1.74,1.58,4,4,0,0,1,.58,2.17A3.78,3.78,0,0,1,106.19,47,6.72,6.72,0,0,1,102,48.23a8.17,8.17,0,0,1-3.24-.63,5,5,0,0,1-2.24-1.77,4.56,4.56,0,0,1-.76-2.6H97.2A3.33,3.33,0,0,0,98.52,46,5.58,5.58,0,0,0,102,47a5.21,5.21,0,0,0,3.13-.86A2.69,2.69,0,0,0,106.34,43.89Z" transform="translate(0 -4.38)"/><path class="cls-2" d="M112.53,48h-1.41V31.29h1.41V48Z" transform="translate(0 -4.38)"/><path class="cls-2" d="M128.89,42.79a6,6,0,0,1-1.89,4,6.25,6.25,0,0,1-4.26,1.4,5.89,5.89,0,0,1-3.29-.93,6.06,6.06,0,0,1-2.21-2.63,9.38,9.38,0,0,1-.79-3.9V38.6a9.46,9.46,0,0,1,.78-3.95A6,6,0,0,1,119.48,32a6.11,6.11,0,0,1,3.37-.94,6,6,0,0,1,4.24,1.45,6.05,6.05,0,0,1,1.81,4h-1.42q-0.53-4.26-4.62-4.26a4.38,4.38,0,0,0-3.62,1.7,7.38,7.38,0,0,0-1.35,4.7v2a7.43,7.43,0,0,0,1.31,4.62A4.23,4.23,0,0,0,122.74,47,4.7,4.7,0,0,0,126.08,46a5.08,5.08,0,0,0,1.39-3.18h1.42Z" transform="translate(0 -4.38)"/><path class="cls-2" d="M139.91,31.29L146.07,46l6.18-14.75h1.88V48h-1.41V40.72l0.12-7.46L146.62,48h-1.09l-6.2-14.68,0.11,7.36V48H138V31.29h1.87Z" transform="translate(0 -4.38)"/><path class="cls-2" d="M160.09,48h-1.41V31.29h1.41V48Z" transform="translate(0 -4.38)"/><path class="cls-2" d="M174.08,43.89a2.71,2.71,0,0,0-1-2.2,10.3,10.3,0,0,0-3.57-1.54,12.52,12.52,0,0,1-3.79-1.59,3.86,3.86,0,0,1-.12-6.31,6.48,6.48,0,0,1,4-1.2,6.68,6.68,0,0,1,3,.64,4.88,4.88,0,0,1,2,1.79,4.7,4.7,0,0,1,.72,2.56H174a3.51,3.51,0,0,0-1.17-2.76,4.56,4.56,0,0,0-3.14-1,5,5,0,0,0-3.05.86,2.67,2.67,0,0,0-1.14,2.24,2.53,2.53,0,0,0,1,2.08,9.47,9.47,0,0,0,3.27,1.42,15.36,15.36,0,0,1,3.41,1.28,4.86,4.86,0,0,1,1.74,1.58,4,4,0,0,1,.58,2.17A3.78,3.78,0,0,1,173.92,47a6.72,6.72,0,0,1-4.16,1.19,8.16,8.16,0,0,1-3.24-.63,5,5,0,0,1-2.24-1.77,4.57,4.57,0,0,1-.76-2.6h1.41A3.33,3.33,0,0,0,166.25,46a5.58,5.58,0,0,0,3.51,1,5.21,5.21,0,0,0,3.13-.86A2.69,2.69,0,0,0,174.08,43.89Z" transform="translate(0 -4.38)"/><path class="cls-2" d="M188,43.89a2.71,2.71,0,0,0-1-2.2,10.29,10.29,0,0,0-3.57-1.54,12.51,12.51,0,0,1-3.79-1.59,3.85,3.85,0,0,1-.12-6.31,6.48,6.48,0,0,1,4-1.2,6.68,6.68,0,0,1,3,.64,4.87,4.87,0,0,1,2,1.79,4.7,4.7,0,0,1,.72,2.56h-1.42a3.51,3.51,0,0,0-1.17-2.76,4.56,4.56,0,0,0-3.14-1,5,5,0,0,0-3.05.86,2.67,2.67,0,0,0-1.14,2.24,2.53,2.53,0,0,0,1,2.08,9.47,9.47,0,0,0,3.27,1.42,15.39,15.39,0,0,1,3.41,1.28,4.87,4.87,0,0,1,1.74,1.58,4,4,0,0,1,.58,2.17A3.78,3.78,0,0,1,187.84,47a6.72,6.72,0,0,1-4.16,1.19,8.17,8.17,0,0,1-3.24-.63,5,5,0,0,1-2.24-1.77,4.56,4.56,0,0,1-.76-2.6h1.41A3.34,3.34,0,0,0,180.17,46a5.58,5.58,0,0,0,3.51,1,5.21,5.21,0,0,0,3.13-.86A2.69,2.69,0,0,0,188,43.89Z" transform="translate(0 -4.38)"/><path class="cls-2" d="M194.18,48h-1.41V31.29h1.41V48Z" transform="translate(0 -4.38)"/><path class="cls-2" d="M211.06,40.55a9.66,9.66,0,0,1-.8,4.05A6.09,6.09,0,0,1,208,47.29a6.24,6.24,0,0,1-3.42.94,5.93,5.93,0,0,1-4.73-2.09,8.37,8.37,0,0,1-1.8-5.65V38.76a9.6,9.6,0,0,1,.81-4,6.39,6.39,0,0,1,9.1-2.72,6.09,6.09,0,0,1,2.28,2.63,9.44,9.44,0,0,1,.84,3.94v2Zm-1.41-1.81A7.38,7.38,0,0,0,208.29,34a4.91,4.91,0,0,0-7.45,0,7.44,7.44,0,0,0-1.38,4.79v1.74a7.39,7.39,0,0,0,1.38,4.71,4.91,4.91,0,0,0,7.48,0,7.58,7.58,0,0,0,1.34-4.78V38.74Z" transform="translate(0 -4.38)"/><path class="cls-2" d="M227.06,48h-1.41L216,33.7V48h-1.42V31.29H216l9.62,14.31V31.29h1.4V48Z" transform="translate(0 -4.38)"/></g></g><g id="music-player"><polygon id="Fill-1" class="cls-3" points="6.4 38.62 40 38.62 40 1.82 6.4 1.82 6.4 38.62"/><polygon id="Fill-2" class="cls-4" points="40 35.42 43.2 35.42 43.2 5.02 40 5.02 40 35.42"/><polygon id="Fill-3" class="cls-4" points="3.2 35.42 6.4 35.42 6.4 5.02 3.2 5.02 3.2 35.42"/><polygon id="Fill-4" class="cls-5" points="43.2 32.22 46.4 32.22 46.4 8.22 43.2 8.22 43.2 32.22"/><polygon id="Fill-5" class="cls-5" points="0 32.22 3.2 32.22 3.2 8.22 0 8.22 0 32.22"/><path id="Fill-6" class="cls-6" d="M31.79,14.73a0.6,0.6,0,0,0-.49-0.14L19.78,16.41a0.61,0.61,0,0,0-.51.6V28.94a4.11,4.11,0,0,0-2.73-1,3.8,3.8,0,0,0-3.94,3.64,3.8,3.8,0,0,0,3.94,3.64,3.81,3.81,0,0,0,3.93-3.55V21.17l10.31-1.63v5.77a4.1,4.1,0,0,0-2.73-1,3.8,3.8,0,0,0-3.94,3.63,3.8,3.8,0,0,0,3.94,3.64A3.8,3.8,0,0,0,32,27.92V15.19A0.6,0.6,0,0,0,31.79,14.73Z" transform="translate(0 -4.38)"/></g></g></g></g></svg>